<?xml version="1.0" standalone="no"?>
<!DOCTYPE svg PUBLIC "-//W3C//DTD SVG 20010904//EN"
 "http://www.w3.org/TR/2001/REC-SVG-20010904/DTD/svg10.dtd">
<svg version="1.0" xmlns="http://www.w3.org/2000/svg"
 width="400.000000pt" height="400.000000pt" viewBox="0 0 400.000000 400.000000"
 preserveAspectRatio="xMidYMid meet">
<metadata>
Created by potrace 1.14, written by Peter Selinger 2001-2017
</metadata>
<g transform="translate(0.000000,400.000000) scale(0.100000,-0.100000)"
fill="#000000" stroke="none">
<path d="M1803 3300 c-260 -37 -520 -168 -705 -357 -103 -104 -113 -116 -183
-229 -65 -103 -126 -254 -157 -390 -32 -137 -32 -402 0 -544 40 -185 107 -342
210 -496 194 -288 474 -479 826 -562 99 -23 131 -26 306 -27 152 0 213 4 277
18 203 45 391 124 543 228 90 61 190 145 190 157 0 4 -36 45 -79 91 l-79 85
-52 -47 c-303 -273 -771 -368 -1170 -237 -311 102 -573 356 -689 670 -53 144
-65 217 -65 390 0 150 2 174 28 265 52 186 129 322 258 453 238 242 586 350
908 281 278 -59 530 -273 636 -540 79 -199 83 -426 12 -618 -78 -212 -273
-396 -493 -467 -106 -34 -259 -43 -366 -21 -299 62 -513 311 -527 612 -5 123
13 209 66 309 93 178 298 296 492 283 177 -12 306 -95 382 -246 31 -63 33 -71
33 -176 0 -100 -2 -115 -27 -161 -109 -206 -384 -236 -479 -52 -36 70 -16 154
43 179 24 10 31 8 65 -20 97 -80 232 6 194 122 -17 50 -83 112 -138 131 -127
43 -277 -10 -358 -128 -136 -199 -46 -487 190 -601 277 -135 619 21 728 333
29 83 35 249 12 344 -56 232 -222 409 -460 489 -60 21 -89 24 -210 24 -117 0
-151 -4 -208 -23 -163 -52 -308 -152 -399 -273 -67 -89 -98 -149 -135 -260
-26 -78 -28 -96 -28 -239 0 -133 3 -166 23 -233 52 -174 120 -288 247 -412
184 -181 407 -264 674 -252 170 7 299 41 431 113 390 214 598 644 525 1088
-51 314 -228 590 -491 765 -190 126 -359 179 -594 186 -80 2 -173 0 -207 -5z"/>
</g>
</svg>
